%TF.GenerationSoftware,KiCad,Pcbnew,7.0.5*%
%TF.CreationDate,2023-09-24T23:37:00-04:00*%
%TF.ProjectId,cascade_cart_rev0,63617363-6164-4655-9f63-6172745f7265,rev?*%
%TF.SameCoordinates,Original*%
%TF.FileFunction,Copper,L1,Top*%
%TF.FilePolarity,Positive*%
%FSLAX46Y46*%
G04 Gerber Fmt 4.6, Leading zero omitted, Abs format (unit mm)*
G04 Created by KiCad (PCBNEW 7.0.5) date 2023-09-24 23:37:00*
%MOMM*%
%LPD*%
G01*
G04 APERTURE LIST*
%TA.AperFunction,ComponentPad*%
%ADD10C,1.600000*%
%TD*%
%TA.AperFunction,ComponentPad*%
%ADD11R,1.700000X1.700000*%
%TD*%
%TA.AperFunction,ComponentPad*%
%ADD12R,1.800000X1.800000*%
%TD*%
%TA.AperFunction,ComponentPad*%
%ADD13C,1.800000*%
%TD*%
%TA.AperFunction,ComponentPad*%
%ADD14O,1.700000X1.700000*%
%TD*%
%TA.AperFunction,SMDPad,CuDef*%
%ADD15C,2.500000*%
%TD*%
%TA.AperFunction,ComponentPad*%
%ADD16O,1.600000X1.600000*%
%TD*%
%TA.AperFunction,ComponentPad*%
%ADD17R,2.200000X2.200000*%
%TD*%
%TA.AperFunction,ComponentPad*%
%ADD18O,2.200000X2.200000*%
%TD*%
%TA.AperFunction,Conductor*%
%ADD19C,0.508000*%
%TD*%
%TA.AperFunction,Conductor*%
%ADD20C,0.203200*%
%TD*%
G04 APERTURE END LIST*
D10*
%TO.P,C3,1*%
%TO.N,/VUSB*%
X141010000Y-55880000D03*
%TO.P,C3,2*%
%TO.N,GND*%
X146010000Y-55880000D03*
%TD*%
D11*
%TO.P,J7,1,Pin_1*%
%TO.N,Net-(J7-Pin_1)*%
X143510000Y-87630000D03*
%TD*%
D12*
%TO.P,D3,1,K*%
%TO.N,GND*%
X77470000Y-82550000D03*
D13*
%TO.P,D3,2,A*%
%TO.N,Net-(D3-A)*%
X77470000Y-85090000D03*
%TD*%
D14*
%TO.P,J3,1,Pin_1*%
%TO.N,/EN_A*%
X107950000Y-92710000D03*
%TO.P,J3,2,Pin_2*%
%TO.N,/MOT_CONT_A1*%
X107950000Y-95250000D03*
%TO.P,J3,3,Pin_3*%
%TO.N,/A1*%
X107950000Y-97790000D03*
%TO.P,J3,4,Pin_4*%
%TO.N,GND*%
X107950000Y-100330000D03*
%TO.P,J3,5,Pin_5*%
X107950000Y-102870000D03*
%TO.P,J3,6,Pin_6*%
%TO.N,/A2*%
X107950000Y-105410000D03*
%TO.P,J3,7,Pin_7*%
%TO.N,/MOT_CONT_A2*%
X107950000Y-107950000D03*
%TO.P,J3,8,Pin_8*%
%TO.N,+5V*%
X107950000Y-110490000D03*
%TO.P,J3,9,Pin_9*%
%TO.N,/EN_B*%
X115570000Y-110490000D03*
%TO.P,J3,10,Pin_10*%
%TO.N,/MOT_CONT_B2*%
X115570000Y-107950000D03*
%TO.P,J3,11,Pin_11*%
%TO.N,/B2*%
X115570000Y-105410000D03*
%TO.P,J3,12,Pin_12*%
%TO.N,GND*%
X115570000Y-102870000D03*
%TO.P,J3,13,Pin_13*%
X115570000Y-100330000D03*
%TO.P,J3,14,Pin_14*%
%TO.N,/B1*%
X115570000Y-97790000D03*
%TO.P,J3,15,Pin_15*%
%TO.N,/MOT_CONT_B1*%
X115570000Y-95250000D03*
%TO.P,J3,16,Pin_16*%
%TO.N,+5V*%
X115570000Y-92710000D03*
%TD*%
%TO.P,U1,1,EN*%
%TO.N,unconnected-(U1-EN-Pad1)*%
X125730000Y-82550000D03*
%TO.P,U1,2,IO3*%
%TO.N,/EN_A*%
X128270000Y-82550000D03*
%TO.P,U1,3,IO5*%
%TO.N,/MOT_CONT_A1*%
X130810000Y-82550000D03*
%TO.P,U1,4,IO7*%
%TO.N,/MOT_CONT_A2*%
X133350000Y-82550000D03*
%TO.P,U1,5,IO9*%
%TO.N,/MOT_CONT_B1*%
X135890000Y-82550000D03*
%TO.P,U1,6,IO11*%
%TO.N,/MOT_CONT_B2*%
X138430000Y-82550000D03*
%TO.P,U1,7,IO12*%
%TO.N,/EN_B*%
X140970000Y-82550000D03*
%TO.P,U1,8,3V3*%
%TO.N,Net-(J7-Pin_1)*%
X143510000Y-82550000D03*
%TO.P,U1,9,IO1*%
%TO.N,unconnected-(U1-IO1-Pad9)*%
X125730000Y-80010000D03*
%TO.P,U1,10,IO2*%
%TO.N,unconnected-(U1-IO2-Pad10)*%
X128270000Y-80010000D03*
%TO.P,U1,11,IO4*%
%TO.N,unconnected-(U1-IO4-Pad11)*%
X130810000Y-80010000D03*
%TO.P,U1,12,IO6*%
%TO.N,unconnected-(U1-IO6-Pad12)*%
X133350000Y-80010000D03*
%TO.P,U1,13,IO8*%
%TO.N,unconnected-(U1-IO8-Pad13)*%
X135890000Y-80010000D03*
%TO.P,U1,14,IO10*%
%TO.N,unconnected-(U1-IO10-Pad14)*%
X138430000Y-80010000D03*
%TO.P,U1,15,IO13*%
%TO.N,unconnected-(U1-IO13-Pad15)*%
X140970000Y-80010000D03*
%TO.P,U1,16,IO14*%
%TO.N,unconnected-(U1-IO14-Pad16)*%
X143510000Y-80010000D03*
%TO.P,U1,17,IO40*%
%TO.N,unconnected-(U1-IO40-Pad17)*%
X125730000Y-62230000D03*
%TO.P,U1,18,IO38*%
%TO.N,unconnected-(U1-IO38-Pad18)*%
X128270000Y-62230000D03*
%TO.P,U1,19,IO36*%
%TO.N,/LED_CONT*%
X130810000Y-62230000D03*
%TO.P,U1,20,IO34*%
%TO.N,/LED_IND*%
X133350000Y-62230000D03*
%TO.P,U1,21,IO21*%
%TO.N,unconnected-(U1-IO21-Pad21)*%
X135890000Y-62230000D03*
%TO.P,U1,22,IO17*%
%TO.N,unconnected-(U1-IO17-Pad22)*%
X138430000Y-62230000D03*
%TO.P,U1,23,GND*%
%TO.N,GND*%
X140970000Y-62230000D03*
%TO.P,U1,24,IO15*%
%TO.N,unconnected-(U1-IO15-Pad24)*%
X143510000Y-62230000D03*
%TO.P,U1,25,IO39*%
%TO.N,Net-(J6-Pin_6)*%
X125730000Y-59690000D03*
%TO.P,U1,26,IO37*%
%TO.N,Net-(J6-Pin_5)*%
X128270000Y-59690000D03*
%TO.P,U1,27,IO35*%
%TO.N,Net-(J6-Pin_4)*%
X130810000Y-59690000D03*
%TO.P,U1,28,IO33*%
%TO.N,Net-(J6-Pin_3)*%
X133350000Y-59690000D03*
%TO.P,U1,29,IO18*%
%TO.N,Net-(J6-Pin_2)*%
X135890000Y-59690000D03*
%TO.P,U1,30,IO16*%
%TO.N,Net-(J6-Pin_1)*%
X138430000Y-59690000D03*
%TO.P,U1,31,GND*%
%TO.N,GND*%
X140970000Y-59690000D03*
%TO.P,U1,32,VBUS*%
%TO.N,/VUSB*%
X143510000Y-59690000D03*
%TD*%
D11*
%TO.P,J5,1,Pin_1*%
%TO.N,/B1*%
X149860000Y-100350000D03*
D14*
%TO.P,J5,2,Pin_2*%
%TO.N,/B2*%
X149860000Y-102890000D03*
%TD*%
D11*
%TO.P,SW1,1,A*%
%TO.N,Net-(SW1-A)*%
X139700000Y-132065000D03*
D14*
%TO.P,SW1,2,B*%
%TO.N,Net-(J1-Pin_2)*%
X139700000Y-129525000D03*
%TO.P,SW1,3,C*%
%TO.N,unconnected-(SW1-C-Pad3)*%
X139700000Y-126985000D03*
%TD*%
D15*
%TO.P,TP2,1,1*%
%TO.N,Net-(SW1-A)*%
X92710000Y-134620000D03*
%TD*%
%TO.P,TP1,1,1*%
%TO.N,+5V*%
X129540000Y-134620000D03*
%TD*%
D10*
%TO.P,R2,1*%
%TO.N,/LED_IND*%
X85090000Y-76200000D03*
D16*
%TO.P,R2,2*%
%TO.N,Net-(D3-A)*%
X85090000Y-86360000D03*
%TD*%
D11*
%TO.P,J6,1,Pin_1*%
%TO.N,Net-(J6-Pin_1)*%
X87630000Y-60960000D03*
D14*
%TO.P,J6,2,Pin_2*%
%TO.N,Net-(J6-Pin_2)*%
X90170000Y-60960000D03*
%TO.P,J6,3,Pin_3*%
%TO.N,Net-(J6-Pin_3)*%
X92710000Y-60960000D03*
%TO.P,J6,4,Pin_4*%
%TO.N,Net-(J6-Pin_4)*%
X95250000Y-60960000D03*
%TO.P,J6,5,Pin_5*%
%TO.N,Net-(J6-Pin_5)*%
X97790000Y-60960000D03*
%TO.P,J6,6,Pin_6*%
%TO.N,Net-(J6-Pin_6)*%
X100330000Y-60960000D03*
%TD*%
D17*
%TO.P,D1,1,K*%
%TO.N,/VUSB*%
X140970000Y-52070000D03*
D18*
%TO.P,D1,2,A*%
%TO.N,+5V*%
X151130000Y-52070000D03*
%TD*%
D10*
%TO.P,R3,1*%
%TO.N,+5V*%
X123190000Y-133350000D03*
D16*
%TO.P,R3,2*%
%TO.N,Net-(D4-A)*%
X123190000Y-123190000D03*
%TD*%
D14*
%TO.P,U2,1,VIN-*%
%TO.N,GND*%
X97790000Y-121920000D03*
%TO.P,U2,2,VIN-*%
X97790000Y-124460000D03*
%TO.P,U2,3,VIN+*%
%TO.N,Net-(SW1-A)*%
X97790000Y-132080000D03*
%TO.P,U2,4,VIN+*%
X97790000Y-134620000D03*
%TO.P,U2,5,VOUT+*%
%TO.N,+5V*%
X115570000Y-134620000D03*
%TO.P,U2,6,VOUT+*%
X115570000Y-132080000D03*
%TO.P,U2,7,VOUT-*%
%TO.N,GND*%
X115570000Y-124460000D03*
%TO.P,U2,8,VOUT-*%
X115570000Y-121920000D03*
%TD*%
D11*
%TO.P,J1,1,Pin_1*%
%TO.N,GND*%
X86360000Y-128270000D03*
D14*
%TO.P,J1,2,Pin_2*%
%TO.N,Net-(J1-Pin_2)*%
X86360000Y-130810000D03*
%TD*%
D12*
%TO.P,D4,1,K*%
%TO.N,GND*%
X130810000Y-127000000D03*
D13*
%TO.P,D4,2,A*%
%TO.N,Net-(D4-A)*%
X130810000Y-124460000D03*
%TD*%
D10*
%TO.P,C1,1*%
%TO.N,+5V*%
X115570000Y-88265000D03*
%TO.P,C1,2*%
%TO.N,GND*%
X120570000Y-88265000D03*
%TD*%
D11*
%TO.P,J4,1,Pin_1*%
%TO.N,/A1*%
X71120000Y-100350000D03*
D14*
%TO.P,J4,2,Pin_2*%
%TO.N,/A2*%
X71120000Y-102890000D03*
%TD*%
D11*
%TO.P,J2,1,Pin_1*%
%TO.N,+5V*%
X76200000Y-67310000D03*
D14*
%TO.P,J2,2,Pin_2*%
%TO.N,/LED_CONT*%
X76200000Y-69850000D03*
%TO.P,J2,3,Pin_3*%
%TO.N,GND*%
X76200000Y-72390000D03*
%TD*%
D10*
%TO.P,C2,1*%
%TO.N,+5V*%
X107910000Y-114935000D03*
%TO.P,C2,2*%
%TO.N,GND*%
X102910000Y-114935000D03*
%TD*%
D19*
%TO.N,/VUSB*%
X141010000Y-57190000D02*
X143510000Y-59690000D01*
X140970000Y-52070000D02*
X140970000Y-55840000D01*
X140970000Y-55840000D02*
X141010000Y-55880000D01*
X141010000Y-55880000D02*
X141010000Y-57190000D01*
%TO.N,+5V*%
X129540000Y-134620000D02*
X115570000Y-134620000D01*
D20*
%TO.N,Net-(D3-A)*%
X78740000Y-86360000D02*
X77470000Y-85090000D01*
X85090000Y-86360000D02*
X78740000Y-86360000D01*
%TO.N,Net-(D4-A)*%
X123190000Y-123190000D02*
X129540000Y-123190000D01*
X129540000Y-123190000D02*
X130810000Y-124460000D01*
%TO.N,/LED_CONT*%
X76200000Y-69850000D02*
X123190000Y-69850000D01*
X123190000Y-69850000D02*
X130810000Y-62230000D01*
%TO.N,/MOT_CONT_A1*%
X107950000Y-95250000D02*
X109220000Y-93980000D01*
X109220000Y-88265000D02*
X112395000Y-85090000D01*
X109220000Y-93980000D02*
X109220000Y-88265000D01*
X128270000Y-85090000D02*
X130810000Y-82550000D01*
X112395000Y-85090000D02*
X128270000Y-85090000D01*
%TO.N,/MOT_CONT_A2*%
X114300000Y-85725000D02*
X130175000Y-85725000D01*
X110490000Y-105410000D02*
X110490000Y-89535000D01*
X110490000Y-89535000D02*
X114300000Y-85725000D01*
X130175000Y-85725000D02*
X133350000Y-82550000D01*
X107950000Y-107950000D02*
X110490000Y-105410000D01*
%TO.N,/MOT_CONT_B2*%
X115570000Y-107950000D02*
X138430000Y-85090000D01*
X138430000Y-85090000D02*
X138430000Y-82550000D01*
%TO.N,/MOT_CONT_B1*%
X135890000Y-85090000D02*
X135890000Y-82550000D01*
X125730000Y-95250000D02*
X135890000Y-85090000D01*
X115570000Y-95250000D02*
X125730000Y-95250000D01*
%TO.N,/LED_IND*%
X85090000Y-71120000D02*
X124460000Y-71120000D01*
X85090000Y-76200000D02*
X85090000Y-71120000D01*
X124460000Y-71120000D02*
X133350000Y-62230000D01*
D19*
%TO.N,Net-(SW1-A)*%
X97790000Y-134620000D02*
X92710000Y-134620000D01*
D20*
%TO.N,/EN_B*%
X115570000Y-110490000D02*
X140970000Y-85090000D01*
X140970000Y-85090000D02*
X140970000Y-82550000D01*
%TO.N,/EN_A*%
X107950000Y-92710000D02*
X107950000Y-88329789D01*
X111824789Y-84455000D02*
X126365000Y-84455000D01*
X126365000Y-84455000D02*
X128270000Y-82550000D01*
X107950000Y-88329789D02*
X111824789Y-84455000D01*
%TO.N,Net-(J6-Pin_1)*%
X87630000Y-46990000D02*
X138430000Y-46990000D01*
X87630000Y-60960000D02*
X87630000Y-46990000D01*
X138430000Y-46990000D02*
X138430000Y-59690000D01*
%TO.N,Net-(J6-Pin_2)*%
X90170000Y-48260000D02*
X90170000Y-60960000D01*
X135890000Y-48260000D02*
X90170000Y-48260000D01*
X135890000Y-59690000D02*
X135890000Y-48260000D01*
%TO.N,Net-(J6-Pin_3)*%
X92710000Y-60960000D02*
X92710000Y-49530000D01*
X133350000Y-49530000D02*
X133350000Y-59690000D01*
X92710000Y-49530000D02*
X133350000Y-49530000D01*
%TO.N,Net-(J6-Pin_4)*%
X130810000Y-50800000D02*
X95250000Y-50800000D01*
X130810000Y-59690000D02*
X130810000Y-50800000D01*
X95250000Y-50800000D02*
X95250000Y-60960000D01*
%TO.N,Net-(J6-Pin_5)*%
X97790000Y-60960000D02*
X97790000Y-52070000D01*
X97790000Y-52070000D02*
X128270000Y-52070000D01*
X128270000Y-52070000D02*
X128270000Y-59690000D01*
%TO.N,Net-(J6-Pin_6)*%
X100330000Y-53340000D02*
X100330000Y-60960000D01*
X125730000Y-59690000D02*
X125730000Y-53340000D01*
X125730000Y-53340000D02*
X100330000Y-53340000D01*
%TD*%
M02*
