M48
; DRILL file {KiCad 7.0.5} date Sun Sep 24 23:37:04 2023
; FORMAT={-:-/ absolute / inch / decimal}
; #@! TF.CreationDate,2023-09-24T23:37:04-04:00
; #@! TF.GenerationSoftware,Kicad,Pcbnew,7.0.5
; #@! TF.FileFunction,Plated,1,2,PTH
FMAT,2
INCH
; #@! TA.AperFunction,Plated,PTH,ComponentDrill
T1C0.0315
; #@! TA.AperFunction,Plated,PTH,ComponentDrill
T2C0.0354
; #@! TA.AperFunction,Plated,PTH,ComponentDrill
T3C0.0394
; #@! TA.AperFunction,Plated,PTH,ComponentDrill
T4C0.0433
%
G90
G05
T1
X3.35Y-3.0
X3.35Y-3.4
X4.0516Y-4.525
X4.2484Y-4.525
X4.55Y-3.475
X4.7469Y-3.475
X4.85Y-4.85
X4.85Y-5.25
X5.5516Y-2.2
X5.7484Y-2.2
T2
X3.05Y-3.25
X3.05Y-3.35
X3.85Y-4.8
X3.85Y-4.9
X3.85Y-5.2
X3.85Y-5.3
X4.25Y-3.65
X4.25Y-3.75
X4.25Y-3.85
X4.25Y-3.95
X4.25Y-4.05
X4.25Y-4.15
X4.25Y-4.25
X4.25Y-4.35
X4.55Y-3.65
X4.55Y-3.75
X4.55Y-3.85
X4.55Y-3.95
X4.55Y-4.05
X4.55Y-4.15
X4.55Y-4.25
X4.55Y-4.35
X4.55Y-4.8
X4.55Y-4.9
X4.55Y-5.2
X4.55Y-5.3
X4.95Y-2.35
X4.95Y-2.45
X4.95Y-3.15
X4.95Y-3.25
X5.05Y-2.35
X5.05Y-2.45
X5.05Y-3.15
X5.05Y-3.25
X5.15Y-2.35
X5.15Y-2.45
X5.15Y-3.15
X5.15Y-3.25
X5.15Y-4.9
X5.15Y-5.0
X5.25Y-2.35
X5.25Y-2.45
X5.25Y-3.15
X5.25Y-3.25
X5.35Y-2.35
X5.35Y-2.45
X5.35Y-3.15
X5.35Y-3.25
X5.45Y-2.35
X5.45Y-2.45
X5.45Y-3.15
X5.45Y-3.25
X5.55Y-2.35
X5.55Y-2.45
X5.55Y-3.15
X5.55Y-3.25
X5.65Y-2.35
X5.65Y-2.45
X5.65Y-3.15
X5.65Y-3.25
T3
X2.8Y-3.9508
X2.8Y-4.0508
X3.0Y-2.65
X3.0Y-2.75
X3.0Y-2.85
X3.4Y-5.05
X3.4Y-5.15
X3.45Y-2.4
X3.55Y-2.4
X3.65Y-2.4
X3.75Y-2.4
X3.85Y-2.4
X3.95Y-2.4
X5.5Y-4.9994
X5.5Y-5.0994
X5.5Y-5.1994
X5.65Y-3.45
X5.9Y-3.9508
X5.9Y-4.0508
T4
X5.55Y-2.05
X5.95Y-2.05
T0
M30
